<svg width="312" height="72" viewBox="0 0 312 72" fill="none" xmlns="http://www.w3.org/2000/svg" role="img" aria-label="DREVORA">
  <defs>
    <linearGradient id="drevora-wordmark-gradient" x1="7" y1="11" x2="58" y2="62" gradientUnits="userSpaceOnUse">
      <stop stop-color="#38BDF8"/>
      <stop offset="0.48" stop-color="#4F46E5"/>
      <stop offset="1" stop-color="#7C3AED"/>
    </linearGradient>
    <linearGradient id="drevora-wordmark-road" x1="8" y1="50" x2="47" y2="42" gradientUnits="userSpaceOnUse">
      <stop stop-color="#CBD5E1"/>
      <stop offset="1" stop-color="#F8FBFF"/>
    </linearGradient>
  </defs>
  <path
    d="M7 12h31.9C54.4 12 65.5 21.8 65.5 35.3S54.4 58.5 38.9 58.5H18.9l6.4-12.9h13.6c7.1 0 12.8-4.4 12.8-10.3S46 24.9 38.9 24.9H16.6L7 12Z"
    fill="url(#drevora-wordmark-gradient)"
  />
  <path
    d="M11 59.1c6.6-13.7 17.9-20.9 34-21.8l-5.4 10.8c-10.3 1.2-17.5 6.2-21.6 15.1H7.7l3.3-4.1Z"
    fill="url(#drevora-wordmark-road)"
  />
  <path
    d="M19.9 56.7c4.2-6.3 10.2-10 17.9-11.1l-1.6 3.3c-5.8 1.2-10.3 4.1-13.5 8.7l-1.9 3.6h-4l3.1-4.5Z"
    fill="#1D4ED8"
    opacity="0.78"
  />
  <path
    d="M26.8 57.9c1.9-2 4.2-3.5 6.8-4.3L31 59c-1.2.5-2.3 1.3-3.2 2.2H24l2.8-3.3Z"
    fill="#7C3AED"
    opacity="0.82"
  />
  <text
    x="82"
    y="43"
    fill="#113C69"
    font-family="Inter, ui-sans-serif, system-ui, -apple-system, BlinkMacSystemFont, 'Segoe UI', sans-serif"
    font-size="31"
    font-weight="800"
    letter-spacing="7"
  >
    DREVORA
  </text>
</svg>
